<?xml version="1.0" encoding="utf-8"?>
<!-- Generator: Adobe Illustrator 28.0.0, SVG Export Plug-In . SVG Version: 6.00 Build 0)  -->
<svg version="1.1"
	 id="svg2" xmlns:cc="http://creativecommons.org/ns#" xmlns:sodipodi="http://sodipodi.sourceforge.net/DTD/sodipodi-0.dtd" xmlns:svg="http://www.w3.org/2000/svg" xmlns:rdf="http://www.w3.org/1999/02/22-rdf-syntax-ns#" xmlns:inkscape="http://www.inkscape.org/namespaces/inkscape" xmlns:dc="http://purl.org/dc/elements/1.1/"
	 xmlns="http://www.w3.org/2000/svg" xmlns:xlink="http://www.w3.org/1999/xlink" x="0px" y="0px" viewBox="0 0 167.1 242.7"
	 style="enable-background:new 0 0 167.1 242.7;" xml:space="preserve">
<style type="text/css">
	.st0{fill:#000793;stroke:#000000;stroke-width:0.5;}
	.st1{fill:url(#SVGID_1_);stroke:url(#SVGID_00000044869332506234268300000005636411684702834582_);stroke-width:10.8354;}
	.st2{fill-rule:evenodd;clip-rule:evenodd;fill:#FAFAFA;}
	.st3{fill-rule:evenodd;clip-rule:evenodd;fill:url(#SVGID_00000178169530884210659130000010968399203855248283_);}
	.st4{fill-rule:evenodd;clip-rule:evenodd;fill:url(#SVGID_00000144331007159327246250000016811713654475484570_);}
</style>
<sodipodi:namedview  bordercolor="#666666" borderopacity="1" gridtolerance="10" guidetolerance="10" id="namedview39" inkscape:current-layer="svg2" inkscape:cx="117.62976" inkscape:cy="148.16686" inkscape:pageopacity="0" inkscape:pageshadow="2" inkscape:window-height="977" inkscape:window-maximized="1" inkscape:window-width="1680" inkscape:window-x="0" inkscape:window-y="25" inkscape:zoom="2.4336873" objecttolerance="10" pagecolor="#ffffff" showgrid="false">
	</sodipodi:namedview>
<g id="Layer_x0020_1">
	<path id="path5" class="st0" d="M166.8,235.5c0,3.8-3.1,6.9-6.9,6.9H7.1c-3.8,0-6.9-3.1-6.9-6.9V7.1c0-3.8,3.1-6.9,6.9-6.9H160
		c3.8,0,6.9,3.1,6.9,6.9V235.5z"/>
	<g id="g7">
		<g id="g9">
		</g>
	</g>
	<g id="g15">
	</g>
	<g id="g19">
	</g>
	<g id="g23">
		<g id="g25">
		</g>
	</g>
	<g id="g31">
		<g id="g33">
		</g>
	</g>
</g>
<g>
	<g>
		
			<radialGradient id="SVGID_1_" cx="-219.7805" cy="518.1896" r="0.2931" gradientTransform="matrix(73.9998 277.4998 277.5037 -74.0009 -127473.9297 99390.9062)" gradientUnits="userSpaceOnUse">
			<stop  offset="0" style="stop-color:#1B1BB5"/>
			<stop  offset="1" style="stop-color:#0C0C4F"/>
		</radialGradient>
		
			<linearGradient id="SVGID_00000033355144386406139920000000878639102448595874_" gradientUnits="userSpaceOnUse" x1="146.7791" y1="139.1061" x2="25.9751" y2="116.6906" gradientTransform="matrix(1 0 0 -1 0 244)">
			<stop  offset="0" style="stop-color:#EC796B"/>
			<stop  offset="1" style="stop-color:#E175B1"/>
		</linearGradient>
		
			<path style="fill:url(#SVGID_1_);stroke:url(#SVGID_00000033355144386406139920000000878639102448595874_);stroke-width:10.8354;" d="
			M22.4,116.6c0,33.8,27.4,61.1,61.1,61.1c33.8,0,61.1-27.4,61.1-61.1c0-33.8-27.4-61.1-61.1-61.1C49.8,55.5,22.4,82.9,22.4,116.6z"
			/>
		<path class="st2" d="M55.9,101.9l1.5-4.8c0.3-1,1.1-1.7,2.1-2l4.8-1.5c0.7-0.2,0.7-1.1,0-1.4l-4.8-1.5c-1-0.3-1.7-1.1-2-2.1
			L56,83.8c-0.2-0.7-1.1-0.7-1.4,0l-1.5,4.8c-0.3,1-1.1,1.7-2.1,2l-4.8,1.5c-0.7,0.2-0.7,1.1,0,1.4L51,95c1,0.3,1.7,1.1,2,2.1
			l1.5,4.8C54.7,102.5,55.7,102.5,55.9,101.9z"/>
		
			<linearGradient id="SVGID_00000129170117733475207170000012459443946393479301_" gradientUnits="userSpaceOnUse" x1="129.9366" y1="149.3153" x2="42.0592" y2="100.488" gradientTransform="matrix(1 0 0 -1 0 244)">
			<stop  offset="0" style="stop-color:#EC796B"/>
			<stop  offset="1" style="stop-color:#E175B1"/>
		</linearGradient>
		<path style="fill-rule:evenodd;clip-rule:evenodd;fill:url(#SVGID_00000129170117733475207170000012459443946393479301_);" d="
			M131.9,99.1c-2-2.2-5.1-3.5-8.1-4c-3-0.5-6.2-0.4-9.2,0.1c-6.1,1-11.6,3.5-16.4,6.6c-2.5,1.5-4.6,3.3-6.8,5.1
			c-1.1,0.9-2,1.9-3,2.8l-2.8,2.7c-3,3.1-5.9,6-8.8,8.3c-2.9,2.3-5.5,4.1-8.2,5.4c-2.6,1.3-5.5,2-9.1,2.1c-3.6,0.1-8-0.5-12.6-1.6
			c-4.6-1.1-9.5-2.6-14.9-3.9c1.9,5.3,4.8,9.9,8.4,14.2c3.7,4.2,8.3,8,14.3,10.5c5.9,2.6,13.2,3.5,20.1,2.1c6.9-1.3,13-4.5,17.9-8.2
			c4.9-3.7,8.9-8,12.3-12.4c0.9-1.2,1.4-1.9,2.1-2.9l1.9-2.7c1.3-1.7,2.5-3.6,3.7-5.3c2.5-3.5,5-7,7.8-10.3c1.4-1.6,3-3.2,4.8-4.7
			c0.9-0.7,1.9-1.5,2.9-2.1C129.3,100,130.4,99.5,131.9,99.1z"/>
		<path class="st2" d="M131.9,99.1c-2.1-5.4-6.1-9.9-11.4-13.2c-5.3-3.3-12.6-5-19.9-3.5c-3.6,0.7-7.1,2-10.1,3.8
			c-3,1.8-5.8,3.9-8.1,6.2c-1.2,1.1-2.2,2.3-3.3,3.6l-2.8,3.5L72,105c-5.4,7.3-11.2,15.8-20.8,18.3c-9.4,2.5-13.5,0.3-19.2-0.6
			c1,2.7,2.3,5.3,4.1,7.6c1.7,2.4,3.8,4.6,6.3,6.5c1.3,0.9,2.6,1.8,4.1,2.6c1.5,0.7,3.1,1.4,4.8,1.9c3.4,0.9,7.3,1.3,11,0.8
			c3.7-0.5,7.3-1.7,10.4-3.3c3.1-1.6,5.9-3.5,8.3-5.5c4.9-4,8.6-8.5,11.8-13c1.6-2.3,3.1-4.6,4.4-6.9l1.6-2.7c0.5-0.8,1-1.6,1.5-2.4
			c2-3,4-5.4,6.4-7.2c2.4-1.9,5.6-3.2,10-3.6C121.3,97.2,126.3,97.8,131.9,99.1z"/>
		
			<linearGradient id="SVGID_00000026842379436864054040000005541780422101610681_" gradientUnits="userSpaceOnUse" x1="122.9508" y1="101.1005" x2="108.6579" y2="99.5886" gradientTransform="matrix(1 0 0 -1 0 244)">
			<stop  offset="0" style="stop-color:#EC796B"/>
			<stop  offset="1" style="stop-color:#E175B1"/>
		</linearGradient>
		<path style="fill-rule:evenodd;clip-rule:evenodd;fill:url(#SVGID_00000026842379436864054040000005541780422101610681_);" d="
			M108.2,143.7c0,3.9,3.2,7.1,7.1,7.1c3.9,0,7.1-3.2,7.1-7.1c0-3.9-3.2-7.1-7.1-7.1C111.4,136.6,108.2,139.8,108.2,143.7z"/>
	</g>
</g>
</svg>
