<?xml version="1.0" encoding="utf-8"?>
<!-- Generator: Adobe Illustrator 28.0.0, SVG Export Plug-In . SVG Version: 6.00 Build 0)  -->
<svg version="1.1"
	 id="svg2" xmlns:cc="http://creativecommons.org/ns#" xmlns:sodipodi="http://sodipodi.sourceforge.net/DTD/sodipodi-0.dtd" xmlns:svg="http://www.w3.org/2000/svg" xmlns:rdf="http://www.w3.org/1999/02/22-rdf-syntax-ns#" xmlns:inkscape="http://www.inkscape.org/namespaces/inkscape" xmlns:dc="http://purl.org/dc/elements/1.1/"
	 xmlns="http://www.w3.org/2000/svg" xmlns:xlink="http://www.w3.org/1999/xlink" x="0px" y="0px" viewBox="0 0 167.1 242.7"
	 style="enable-background:new 0 0 167.1 242.7;" xml:space="preserve">
<style type="text/css">
	.st0{fill:#000793;stroke:#000000;stroke-width:0.5;}
	.st1{fill:url(#SVGID_1_);stroke:url(#SVGID_00000013189287381137718610000016255488592350606216_);stroke-width:10.8354;}
	.st2{fill-rule:evenodd;clip-rule:evenodd;fill:#FAFAFA;}
	.st3{fill-rule:evenodd;clip-rule:evenodd;fill:url(#SVGID_00000003800010933994949530000014684039947643502012_);}
	.st4{fill:#FFFFFF;}
	.st5{font-family:'Phosphate-Inline';}
	.st6{font-size:17.8989px;}
</style>
<sodipodi:namedview  bordercolor="#666666" borderopacity="1" gridtolerance="10" guidetolerance="10" id="namedview39" inkscape:current-layer="svg2" inkscape:cx="117.62976" inkscape:cy="148.16686" inkscape:pageopacity="0" inkscape:pageshadow="2" inkscape:window-height="977" inkscape:window-maximized="1" inkscape:window-width="1680" inkscape:window-x="0" inkscape:window-y="25" inkscape:zoom="2.4336873" objecttolerance="10" pagecolor="#ffffff" showgrid="false">
	</sodipodi:namedview>
<g id="Layer_x0020_1">
	<path id="path5" class="st0" d="M166.8,235.5c0,3.8-3.1,6.9-6.9,6.9H7.1c-3.8,0-6.9-3.1-6.9-6.9V7.1c0-3.8,3.1-6.9,6.9-6.9H160
		c3.8,0,6.9,3.1,6.9,6.9L166.8,235.5L166.8,235.5z"/>
	<g id="g7">
		<g id="g9">
		</g>
	</g>
	<g id="g15">
	</g>
	<g id="g19">
	</g>
	<g id="g23">
		<g id="g25">
		</g>
	</g>
	<g id="g31">
		<g id="g33">
		</g>
	</g>
</g>
<g>
	<g>
		
			<radialGradient id="SVGID_1_" cx="-439.6604" cy="-0.6873" r="0.2931" gradientTransform="matrix(73.9998 277.4998 -277.5037 74.0009 32405.9395 122111.8906)" gradientUnits="userSpaceOnUse">
			<stop  offset="0" style="stop-color:#1B1BB5"/>
			<stop  offset="1" style="stop-color:#0C0C4F"/>
		</radialGradient>
		
			<linearGradient id="SVGID_00000054971624793547540680000014167026138789459382_" gradientUnits="userSpaceOnUse" x1="146.7732" y1="652.862" x2="25.9692" y2="675.2775" gradientTransform="matrix(1 0 0 1 0 -548)">
			<stop  offset="0" style="stop-color:#EC796B"/>
			<stop  offset="1" style="stop-color:#E175B1"/>
		</linearGradient>
		
			<path style="fill:url(#SVGID_1_);stroke:url(#SVGID_00000054971624793547540680000014167026138789459382_);stroke-width:10.8354;" d="
			M22.4,116.6c0,33.8,27.4,61.1,61.1,61.1c33.8,0,61.1-27.4,61.1-61.1c0-33.8-27.4-61.1-61.1-61.1S22.4,82.9,22.4,116.6z"/>
		<path class="st2" d="M55.9,101.9l1.5-4.8c0.3-1,1.1-1.7,2.1-2l4.8-1.5c0.7-0.2,0.7-1.1,0-1.4l-4.8-1.5c-1-0.3-1.7-1.1-2-2.1
			L56,83.8c-0.2-0.7-1.1-0.7-1.4,0l-1.5,4.8c-0.3,1-1.1,1.7-2.1,2l-4.8,1.5c-0.7,0.2-0.7,1.1,0,1.4L51,95c1,0.3,1.7,1.1,2,2.1
			l1.5,4.8C54.7,102.5,55.7,102.5,55.9,101.9z"/>
		
			<linearGradient id="SVGID_00000054248243232271299700000000937189676411816348_" gradientUnits="userSpaceOnUse" x1="122.9499" y1="690.8908" x2="108.657" y2="692.4027" gradientTransform="matrix(1 0 0 1 0 -548)">
			<stop  offset="0" style="stop-color:#EC796B"/>
			<stop  offset="1" style="stop-color:#E175B1"/>
		</linearGradient>
		<path style="fill-rule:evenodd;clip-rule:evenodd;fill:url(#SVGID_00000054248243232271299700000000937189676411816348_);" d="
			M108.2,143.7c0,3.9,3.2,7.1,7.1,7.1s7.1-3.2,7.1-7.1c0-3.9-3.2-7.1-7.1-7.1C111.4,136.6,108.2,139.8,108.2,143.7z"/>
	</g>
</g>
<text transform="matrix(1 0 0 1 56.6846 115.6182)"><tspan x="0" y="0" class="st4 st5 st6">Poker</tspan><tspan x="0" y="21.5" class="st4 st5 st6">Boots</tspan></text>
</svg>
