<?xml version="1.0" encoding="utf-8"?>
<!-- Generator: Adobe Illustrator 28.0.0, SVG Export Plug-In . SVG Version: 6.00 Build 0)  -->
<svg version="1.1" id="Layer_1" xmlns="http://www.w3.org/2000/svg" xmlns:xlink="http://www.w3.org/1999/xlink" x="0px" y="0px"
	 viewBox="0 0 108 107" style="enable-background:new 0 0 108 107;" xml:space="preserve">
<style type="text/css">
	.st0{fill:#E7F0FE;}
	.st1{clip-path:url(#SVGID_00000142139176213357580930000018117876856959577230_);}
	.st2{fill:#0C0C4F;}
	.st3{clip-path:url(#SVGID_00000001625959997485485350000006734208133690046081_);}
	.st4{fill:#FFFFFF;filter:url(#Adobe_OpacityMaskFilter);}
	.st5{mask:url(#mask0_2003_31_00000007422103582585321100000015319506654495352192_);}
	.st6{fill-rule:evenodd;clip-rule:evenodd;fill:#E7F0FE;}
	.st7{clip-path:url(#SVGID_00000095334864213461401050000005762912363251718282_);}
	.st8{fill:#FFFFFF;filter:url(#Adobe_OpacityMaskFilter_00000056416344841338448150000014538864842630816402_);}
	.st9{mask:url(#mask1_2003_31_00000100380007073611665560000004593094334034235310_);}
	.st10{fill-rule:evenodd;clip-rule:evenodd;fill:#0C0C4F;}
	.st11{fill-rule:evenodd;clip-rule:evenodd;fill:#FAFAFA;}
	.st12{fill-rule:evenodd;clip-rule:evenodd;fill:url(#SVGID_00000129888897037735743390000000071299410680976039_);}
	.st13{fill-rule:evenodd;clip-rule:evenodd;fill:url(#SVGID_00000085215893257511065940000006734158129533394060_);}
</style>
<path class="st0" d="M87.2,0H20.8C9.3,0,0,9.3,0,20.8v65.3C0,97.7,9.3,107,20.8,107h66.3c11.5,0,20.8-9.3,20.8-20.8V20.8
	C108,9.3,98.7,0,87.2,0z"/>
<g>
	<defs>
		<rect id="SVGID_1_" x="2" y="2" width="103" height="102"/>
	</defs>
	<clipPath id="SVGID_00000114043646634585786280000005203641494763237040_">
		<use xlink:href="#SVGID_1_"  style="overflow:visible;"/>
	</clipPath>
	<g style="clip-path:url(#SVGID_00000114043646634585786280000005203641494763237040_);">
		<path class="st2" d="M85,3H22.4C11.5,3,2.7,11.8,2.7,22.7v61.6c0,10.9,8.8,19.7,19.7,19.7H85c10.9,0,19.7-8.8,19.7-19.7V22.7
			C104.6,11.8,95.8,3,85,3z"/>
		<g>
			<defs>
				<rect id="SVGID_00000145033758404939372460000005897941298353705137_" x="4.8" y="4.3" width="97.3" height="97.3"/>
			</defs>
			<clipPath id="SVGID_00000177451747577347693580000016087121613904523186_">
				<use xlink:href="#SVGID_00000145033758404939372460000005897941298353705137_"  style="overflow:visible;"/>
			</clipPath>
			<g style="clip-path:url(#SVGID_00000177451747577347693580000016087121613904523186_);">
				<defs>
					<filter id="Adobe_OpacityMaskFilter" filterUnits="userSpaceOnUse" x="4.8" y="5" width="97.3" height="96.7">
						<feColorMatrix  type="matrix" values="1 0 0 0 0  0 1 0 0 0  0 0 1 0 0  0 0 0 1 0"/>
					</filter>
				</defs>
				
					<mask maskUnits="userSpaceOnUse" x="4.8" y="5" width="97.3" height="96.7" id="mask0_2003_31_00000007422103582585321100000015319506654495352192_">
					<path class="st4" d="M102.2,4.3H4.8v97.3h97.3V4.3z"/>
				</mask>
				<g class="st5">
					<path class="st6" d="M4.8,53.3c0,26.7,21.8,48.4,48.7,48.4s48.7-21.6,48.7-48.4C102.2,26.6,80.4,5,53.5,5S4.8,26.6,4.8,53.3z"
						/>
				</g>
				<g>
					<defs>
						<rect id="SVGID_00000065033680834198955710000011963383612272601733_" x="8.4" y="7.9" width="90.1" height="90.1"/>
					</defs>
					<clipPath id="SVGID_00000011713183157973705230000011880918918514713755_">
						<use xlink:href="#SVGID_00000065033680834198955710000011963383612272601733_"  style="overflow:visible;"/>
					</clipPath>
					<g style="clip-path:url(#SVGID_00000011713183157973705230000011880918918514713755_);">
						<defs>
							
								<filter id="Adobe_OpacityMaskFilter_00000117639405892689722000000017410886156354374284_" filterUnits="userSpaceOnUse" x="8.4" y="8.5" width="90.1" height="89.5">
								<feColorMatrix  type="matrix" values="1 0 0 0 0  0 1 0 0 0  0 0 1 0 0  0 0 0 1 0"/>
							</filter>
						</defs>
						
							<mask maskUnits="userSpaceOnUse" x="8.4" y="8.5" width="90.1" height="89.5" id="mask1_2003_31_00000100380007073611665560000004593094334034235310_">
							<path style="fill:#FFFFFF;filter:url(#Adobe_OpacityMaskFilter_00000117639405892689722000000017410886156354374284_);" d="
								M98.6,7.9H8.4v90.1h90.1V7.9z"/>
						</mask>
						<g class="st9">
							<path class="st10" d="M8.4,53.3c0,24.7,20.2,44.8,45.1,44.8s45.1-20,45.1-44.8c0-24.7-20.2-44.8-45.1-44.8S8.4,28.6,8.4,53.3
								z"/>
							<path class="st11" d="M33.6,42.7l1.1-3.4c0.2-0.7,0.8-1.2,1.5-1.4l3.5-1.1c0.5-0.1,0.5-0.8,0-1l-3.4-1.1
								c-0.7-0.2-1.2-0.8-1.5-1.5l-1.1-3.4c-0.1-0.5-0.8-0.5-1,0l-1.1,3.4c-0.2,0.7-0.8,1.2-1.5,1.4l-3.5,1.1c-0.5,0.1-0.5,0.8,0,1
								l3.4,1.1c0.7,0.2,1.2,0.8,1.5,1.5l1.1,3.4C32.8,43.2,33.5,43.2,33.6,42.7z"/>
							
								<linearGradient id="SVGID_00000158028628936004092870000008909505159662164912_" gradientUnits="userSpaceOnUse" x1="86.6724" y1="70.651" x2="23.743" y2="35.4639" gradientTransform="matrix(1 0 0 -1 0 108)">
								<stop  offset="0" style="stop-color:#EC796B"/>
								<stop  offset="1" style="stop-color:#E175B1"/>
							</linearGradient>
							
								<path style="fill-rule:evenodd;clip-rule:evenodd;fill:url(#SVGID_00000158028628936004092870000008909505159662164912_);" d="
								M88.2,40.7c-1.4-1.6-3.6-2.5-5.8-2.8c-2.2-0.4-4.5-0.3-6.6,0.1c-4.3,0.7-8.3,2.5-11.7,4.7c-1.8,1.1-3.3,2.3-4.9,3.6
								c-0.8,0.6-1.5,1.3-2.2,2l-2,2c-2.1,2.2-4.3,4.3-6.3,5.9c-2.1,1.7-4,2.9-5.9,3.8c-1.9,0.9-3.9,1.4-6.6,1.5
								c-2.6,0.1-5.7-0.4-9-1.2c-3.3-0.8-6.8-1.9-10.7-2.8c1.4,3.8,3.4,7.1,6.1,10.1c2.7,3,6,5.7,10.3,7.5c4.2,1.8,9.5,2.5,14.5,1.5
								c5-0.9,9.3-3.2,12.9-5.9c3.5-2.7,6.4-5.7,8.8-8.9c0.7-0.9,1-1.4,1.5-2l1.3-2c0.9-1.2,1.8-2.6,2.7-3.8c1.8-2.5,3.6-5,5.6-7.3
								c1-1.2,2.1-2.3,3.4-3.4c0.6-0.5,1.3-1,2.1-1.5C86.4,41.4,87.2,41,88.2,40.7z"/>
							<path class="st11" d="M88.2,40.7c-1.5-3.8-4.4-7.1-8.2-9.4c-3.8-2.4-9.1-3.6-14.3-2.5c-2.6,0.5-5.1,1.4-7.3,2.7
								c-2.2,1.3-4.1,2.8-5.8,4.4c-0.8,0.8-1.6,1.7-2.4,2.5l-2,2.5l-3.1,4c-3.9,5.2-8.1,11.3-15,13.1c-6.7,1.8-9.7,0.2-13.8-0.4
								c0.8,1.9,1.7,3.8,3,5.5c1.2,1.7,2.7,3.3,4.5,4.6c0.9,0.7,1.9,1.3,3,1.8c1.1,0.5,2.2,1,3.5,1.3c2.5,0.7,5.2,0.9,7.9,0.5
								c2.7-0.4,5.2-1.2,7.5-2.3c2.3-1.1,4.2-2.5,6-3.9c3.5-2.9,6.2-6.1,8.5-9.3c1.2-1.6,2.2-3.2,3.2-4.9l1.1-2
								c0.3-0.6,0.7-1.1,1.1-1.7c1.4-2.1,2.9-3.9,4.6-5.2c1.7-1.3,4.1-2.3,7.2-2.5C80.6,39.4,84.2,39.9,88.2,40.7z"/>
							
								<linearGradient id="SVGID_00000079469567934662704120000005266745124484184511_" gradientUnits="userSpaceOnUse" x1="81.8038" y1="35.974" x2="71.5391" y2="34.8817" gradientTransform="matrix(1 0 0 -1 0 108)">
								<stop  offset="0" style="stop-color:#EC796B"/>
								<stop  offset="1" style="stop-color:#E175B1"/>
							</linearGradient>
							
								<path style="fill-rule:evenodd;clip-rule:evenodd;fill:url(#SVGID_00000079469567934662704120000005266745124484184511_);" d="
								M71.2,72.6c0,2.8,2.3,5.1,5.1,5.1c2.8,0,5.1-2.3,5.1-5.1c0-2.8-2.3-5.1-5.1-5.1C73.5,67.5,71.2,69.8,71.2,72.6z"/>
						</g>
					</g>
				</g>
			</g>
		</g>
	</g>
</g>
</svg>
