<?xml version="1.0" encoding="UTF-8"?>
<svg id="Layer_2" data-name="Layer 2" xmlns="http://www.w3.org/2000/svg" xmlns:xlink="http://www.w3.org/1999/xlink" viewBox="0 0 416.2 416.2">
  <defs>
    <style>
      .cls-1 {
        font-family: Impact, Impact;
        font-size: 72px;
        isolation: isolate;
      }

      .cls-1, .cls-2 {
        fill: #fff;
      }

      .cls-3 {
        fill: url(#radial-gradient);
      }

      .cls-3, .cls-4, .cls-5, .cls-2 {
        stroke-width: 0px;
      }

      .cls-4 {
        fill: #898989;
      }

      .cls-5 {
        fill: #e07070;
      }
    </style>
    <radialGradient id="radial-gradient" cx="-1605.8" cy="416.89" fx="-1605.8" fy="416.89" r=".79" gradientTransform="translate(297279.46 525519.81) rotate(75.07) scale(363.89 363.91)" gradientUnits="userSpaceOnUse">
      <stop offset="0" stop-color="#1b1bb5"/>
      <stop offset="1" stop-color="#0c0c4f"/>
    </radialGradient>
  </defs>
  <circle class="cls-4" cx="208.1" cy="208.1" r="200"/>
  <path class="cls-3" d="m0,208.1c0,115.3,92.8,208.1,208.1,208.1s208.1-92.8,208.1-208.1S323.4,0,208.1,0,0,94.2,0,208.1Z"/>
  <path class="cls-5" d="m207.9,411.8c-12.6,0-25.2-1.2-37.6-3.5l9.3-49.1c19.2,3.6,39.2,3.5,58.6-.4l1.2-.2,10.1,49c-.5.1-1,.2-1.5.3-13.1,2.5-26.7,3.9-40.1,3.9h0Zm-111.1-33.1c-22.5-14.7-41.5-33.3-56.7-55.4l41.2-28.3c11.4,16.6,25.8,30.7,42.8,41.8l-27.3,41.9h0Zm225.8-2.2l-28.1-41.3c16.7-11.4,30.8-25.7,41.9-42.6l41.8,27.5c-14.7,22.4-33.4,41.4-55.6,56.4h0ZM8.9,250.4c-.2-.8-.3-1.5-.5-2.3-2.7-13.3-4-26.8-4-40.2,0-12.3,1.1-24.7,3.4-36.8l49.2,9.1c-1.7,9.1-2.5,18.4-2.5,27.7,0,10.1,1,20.3,3,30.4.1.6.2,1.2.4,1.8l-49,10.3h0Zm399.2-3.8l-49.1-9.5c1.8-9.5,2.8-19.2,2.8-28.9s-1-20.3-3-30.4l-.1-.6,49-9.9.2.8c2.6,13.2,4,26.7,4,40.1s-1.3,25.8-3.8,38.4h0ZM79.1,124.7l-42-27.2c14.6-22.5,33.1-41.7,55.1-56.9l28.5,41.1c-16.6,11.5-30.6,25.9-41.6,43h0Zm256.4-2.5c-11.3-16.7-25.6-30.9-42.5-42.1l27.6-41.7c22.4,14.9,41.3,33.6,56.3,55.8l-41.4,28h0ZM175.6,58l-10.6-48.9c1-.2,2.1-.4,3.1-.6,26.2-5.2,53.3-5.3,79.3-.2l-9.7,49.1c-19.6-3.9-40-3.8-59.8.2-.7,0-1.5.2-2.3.4h0Z"/>
  <path class="cls-2" d="m191.4,356c-10.9-1.2-21.8-3.7-32.2-7.4-1-.3-1.9-.7-2.9-1l3.5-9.4c.9.3,1.8.6,2.7,1,9.8,3.4,19.9,5.7,30.1,6.9l-1.2,9.9h0Zm36.2-.3l-1.3-9.9c11.1-1.5,22.1-4.3,32.6-8.4l3.7,9.3c-11.3,4.4-23.1,7.4-35,9h0Zm-103.4-24.6c-10-6.8-19.1-14.8-27.2-23.8l7.5-6.6c7.5,8.4,16,15.9,25.3,22.2l-5.6,8.2h0Zm170.1-1.6l-5.8-8.2c9.2-6.5,17.6-14.1,24.9-22.7l7.6,6.5c-7.8,9.2-16.8,17.4-26.7,24.4h0Zm-217.8-51.9c-5.6-10.7-10-22-12.9-33.8l9.7-2.4c2.7,10.9,6.8,21.5,12,31.5l-8.8,4.7h0Zm264.5-2.5l-8.9-4.5c2.7-5.4,5.1-11.1,7.1-16.9,1.7-4.9,3.1-9.9,4.3-14.9l9.8,2.2c-1.2,5.3-2.8,10.7-4.6,15.9-2.2,6.3-4.7,12.4-7.7,18.2h0ZM69.2,208h-10c0-12.1,1.5-24.1,4.5-35.9l9.7,2.4c-2.8,11-4.2,22.2-4.2,33.5Zm277.8-2.6c-.2-11.2-1.8-22.5-4.8-33.3l9.6-2.6c3.1,11.7,4.9,23.7,5.1,35.8l-9.9.1h0Zm-261.6-62.4l-8.8-4.7c5.7-10.7,12.6-20.7,20.7-29.6l7.4,6.7c-7.5,8.4-14,17.7-19.3,27.6h0Zm244.2-2.2c-5.5-9.9-12.1-19-19.8-27.3l7.3-6.8c8.2,8.8,15.3,18.7,21.2,29.2l-8.7,4.9h0Zm-199.5-47.5l-5.6-8.3c10-6.8,20.8-12.3,32.1-16.5l3.5,9.4c-10.6,3.9-20.7,9-30,15.4h0Zm153.9-1.5c-9.4-6.1-19.6-11.1-30.3-14.8l3.3-9.4c11.5,4,22.4,9.3,32.4,15.9.1-.1-5.4,8.3-5.4,8.3Zm-57.5-21.3c-11.1-1.5-22.5-1.6-33.7-.4l-1.1-9.9c12-1.3,24.2-1.2,36.1.4l-1.3,9.9h0Z"/>
  <text class="cls-1" transform="translate(97 209.47)"><tspan x="0" y="0">$POKER</tspan></text>
  <text class="cls-1" transform="translate(140.75 300.59)"><tspan x="0" y="0">NFTs</tspan></text>
</svg>